<svg id="visual" viewBox="0 0 1920 4000" width="1920" height="4000" xmlns="http://www.w3.org/2000/svg" xmlns:xlink="http://www.w3.org/1999/xlink" version="1.1"><rect x="0" y="0" width="1920" height="4000" fill="#fff"></rect><g fill="#f7f7f7"><circle r="259" cx="234" cy="3215"></circle><circle r="49" cx="1761" cy="3354"></circle><circle r="178" cx="951" cy="407"></circle><circle r="165" cx="1022" cy="1601"></circle><circle r="238" cx="1290" cy="2565"></circle><circle r="104" cx="1177" cy="986"></circle><circle r="125" cx="1740" cy="2168"></circle><circle r="166" cx="165" cy="247"></circle><circle r="89" cx="716" cy="2108"></circle><circle r="114" cx="1810" cy="1364"></circle><circle r="115" cx="1336" cy="3838"></circle><circle r="67" cx="1663" cy="47"></circle><circle r="196" cx="210" cy="1456"></circle><circle r="198" cx="686" cy="3628"></circle><circle r="61" cx="534" cy="1052"></circle><circle r="172" cx="1837" cy="749"></circle><circle r="109" cx="963" cy="3044"></circle><circle r="171" cx="155" cy="2091"></circle><circle r="143" cx="39" cy="3862"></circle><circle r="51" cx="308" cy="2646"></circle><circle r="157" cx="1905" cy="2702"></circle><circle r="91" cx="34" cy="896"></circle></g></svg>